<svg width="24" height="24" fill="none" xmlns="http://www.w3.org/2000/svg"><path d="M12 0a12 12 0 1 0 0 24 12 12 0 0 0 0-24Zm5.57 8.16c-.18 1.9-.96 6.5-1.36 8.63-.17.9-.5 1.2-.81 1.23-.7.06-1.23-.45-1.9-.9l-2.68-1.8c-1.18-.78-.42-1.2.27-1.9.18-.18 3.25-2.98 3.31-3.23a.24.24 0 0 0-.06-.22c-.07-.06-.17-.03-.25-.02-.11.02-1.79 1.14-5.07 3.35-.48.32-.9.49-1.3.48a8.37 8.37 0 0 1-1.85-.45c-.76-.24-1.35-.37-1.3-.79.03-.22.33-.43.89-.66 3.5-1.52 5.83-2.53 7-3.01 3.33-1.4 4.02-1.63 4.47-1.63.1 0 .33.02.47.14.12.1.16.23.17.32v.46Z" fill="#252420"/></svg>