<svg width="100" height="100" fill="none" xmlns="http://www.w3.org/2000/svg"><circle cx="50" cy="50" r="50" fill="#FF7500" fill-opacity=".2"/><path d="M40.68 27.35a2.8 2.8 0 0 0-5.4 1.45l.72 2.7a2.8 2.8 0 1 0 5.4-1.44l-.72-2.7ZM28.8 35.27a2.8 2.8 0 0 0-1.45 5.41l2.7.73A2.8 2.8 0 1 0 31.52 36l-2.7-.73ZM53.48 33.68a2.8 2.8 0 0 0-3.96-3.96l-1.98 1.98a2.8 2.8 0 1 0 3.96 3.96l1.98-1.98ZM33.68 53.48l1.98-1.98a2.8 2.8 0 1 0-3.96-3.96l-1.98 1.98a2.8 2.8 0 1 0 3.96 3.96ZM42.64 39A2.8 2.8 0 0 0 39 42.64l11.2 28a2.8 2.8 0 0 0 5.1.21l3.87-7.72 8.45 8.45a2.8 2.8 0 1 0 3.96-3.96l-8.45-8.45 7.72-3.87a2.8 2.8 0 0 0-.21-5.1l-28-11.2Z" fill="#FF7500"/></svg>