<svg width="100" height="100" fill="none" xmlns="http://www.w3.org/2000/svg"><circle cx="50" cy="50" r="50" fill="#FF7500" fill-opacity=".2"/><path fill-rule="evenodd" clip-rule="evenodd" d="M36 27.6a2.8 2.8 0 0 1 2.8 2.8v2.8h2.8a2.8 2.8 0 1 1 0 5.6h-2.8v2.8a2.8 2.8 0 1 1-5.6 0v-2.8h-2.8a2.8 2.8 0 1 1 0-5.6h2.8v-2.8a2.8 2.8 0 0 1 2.8-2.8Zm0 28a2.8 2.8 0 0 1 2.8 2.8v2.8h2.8a2.8 2.8 0 1 1 0 5.6h-2.8v2.8a2.8 2.8 0 1 1-5.6 0v-2.8h-2.8a2.8 2.8 0 1 1 0-5.6h2.8v-2.8a2.8 2.8 0 0 1 2.8-2.8ZM55.6 27.6a2.8 2.8 0 0 1 2.7 2.08l3.3 12.48 9.4 5.41a2.8 2.8 0 0 1 0 4.86l-9.4 5.41-3.3 12.48a2.8 2.8 0 0 1-5.4 0l-3.3-12.48-9.4-5.41a2.8 2.8 0 0 1 0-4.86l9.4-5.41 3.3-12.48a2.8 2.8 0 0 1 2.7-2.08Z" fill="#FF7500"/></svg>