<svg width="227" height="60" fill="none" xmlns="http://www.w3.org/2000/svg"><g clip-path="url(#a)"><path d="M19 0 0 13.65v35l10.53 10.53-.23-36.76 8.7-7.11 8.7 7.11-.23 36.76L38 48.65v-35L19 0Z" fill="#252420"/><path d="m26 29.6-7 4.2-7-4.2v12.25l7 4.2 7-4.2V29.6Z" fill="#FF7401"/></g><path d="M62.69 35.94h-6.27l-1.22 4.65h-4.86l7.11-22.75h4.2l7.16 22.75h-4.9l-1.22-4.65Zm-5.27-3.83h4.25L59.55 24l-2.13 8.1Zm18.92 1.97-1.18 1.32v5.2h-4.43v-24h4.43v12.96l.54-.81 3.07-5.06h5.26l-4.9 6.96 5.37 9.94h-5.06l-3.1-6.51Zm17.74 6.51c-.13-.26-.25-.7-.38-1.31a3.78 3.78 0 0 1-3.22 1.62c-1.41 0-2.59-.46-3.53-1.4a4.96 4.96 0 0 1-1.39-3.64c0-1.77.56-3.14 1.69-4.11 1.14-.97 2.77-1.47 4.9-1.49h1.33V28.9c0-.76-.13-1.3-.39-1.6-.26-.32-.64-.47-1.14-.47-1.1 0-1.65.64-1.65 1.93h-4.42c0-1.56.58-2.85 1.75-3.86a6.55 6.55 0 0 1 4.45-1.53c1.85 0 3.28.49 4.3 1.46 1.02.95 1.53 2.33 1.53 4.12v7.95c.02 1.46.23 2.6.62 3.43v.26h-4.45Zm-2.61-3.15c.49 0 .9-.1 1.25-.3.34-.2.6-.43.76-.7v-3.52h-1.06a2.3 2.3 0 0 0-1.78.72 2.78 2.78 0 0 0-.64 1.92c0 1.25.49 1.88 1.47 1.88Zm9.05-5.82c0-2.77.46-4.84 1.4-6.2a4.65 4.65 0 0 1 4.1-2.05c1.3 0 2.38.57 3.25 1.7v-8.48h4.45v24h-4.02l-.2-1.72c-.9 1.36-2.07 2.03-3.5 2.03a4.63 4.63 0 0 1-4.06-2.03c-.93-1.35-1.4-3.34-1.42-5.97v-1.28Zm4.43 1.11c0 1.67.18 2.84.53 3.5.36.66.96.99 1.8.99.88 0 1.54-.4 1.99-1.17v-7.72c-.44-.84-1.1-1.25-1.97-1.25-.82 0-1.4.32-1.78.98-.38.66-.57 1.82-.57 3.5v1.17Zm18.86 8.17c-2.27 0-4.04-.67-5.31-2.03-1.27-1.35-1.9-3.29-1.9-5.8v-1.35c0-2.67.58-4.73 1.74-6.17 1.17-1.45 2.84-2.18 5.02-2.18 2.12 0 3.72.69 4.8 2.05 1.07 1.35 1.62 3.36 1.64 6.03v2.17H121c.06 1.25.34 2.17.83 2.75.49.58 1.24.86 2.26.86 1.48 0 2.72-.5 3.7-1.51l1.74 2.67a5.77 5.77 0 0 1-2.36 1.83 8.18 8.18 0 0 1-3.36.68Zm-2.78-10.37h4.42v-.4a4.72 4.72 0 0 0-.5-2.3c-.3-.52-.85-.78-1.62-.78-.77 0-1.33.27-1.69.82a5.78 5.78 0 0 0-.6 2.66Zm15.42-6.84.13 1.56a4.76 4.76 0 0 1 3.92-1.88c1.69 0 2.88.76 3.58 2.28a4.63 4.63 0 0 1 4.14-2.28c2.96 0 4.47 2.05 4.55 6.14V40.6h-4.43V29.8c0-.97-.13-1.67-.4-2.09-.27-.42-.73-.62-1.38-.62-.82 0-1.44.5-1.84 1.51l.03.53V40.6h-4.42V29.83a4.2 4.2 0 0 0-.4-2.1c-.25-.43-.72-.65-1.38-.65-.76 0-1.37.4-1.82 1.23V40.6h-4.42V23.7h4.14Z" fill="#252420"/><path d="m160.1 23.69.12 1.67c1-1.33 2.3-1.99 3.92-1.99 2.9 0 4.4 2.04 4.49 6.11V40.6h-4.44V29.81c0-.96-.15-1.65-.44-2.08-.28-.43-.78-.65-1.5-.65-.8 0-1.43.4-1.88 1.23V40.6h-4.43V23.7h4.15Zm19.73 16.9c-.13-.26-.25-.7-.38-1.31a3.78 3.78 0 0 1-3.22 1.62c-1.41 0-2.59-.46-3.53-1.4a4.96 4.96 0 0 1-1.39-3.64c0-1.77.56-3.14 1.69-4.11 1.13-.97 2.77-1.47 4.9-1.49h1.33V28.9c0-.76-.13-1.3-.39-1.6-.26-.32-.64-.47-1.14-.47-1.1 0-1.65.64-1.65 1.93h-4.43c0-1.56.59-2.85 1.75-3.86a6.55 6.55 0 0 1 4.46-1.53c1.85 0 3.28.49 4.3 1.46 1.02.95 1.53 2.33 1.53 4.12v7.95c.02 1.46.22 2.6.62 3.43v.26h-4.45Zm-2.61-3.15c.49 0 .9-.1 1.25-.3.34-.2.6-.43.76-.7v-3.52h-1.06a2.3 2.3 0 0 0-1.78.72 2.78 2.78 0 0 0-.64 1.92c0 1.25.49 1.88 1.47 1.88Zm17.12-1.38c0-.37-.18-.72-.54-1.03-.36-.32-1.15-.76-2.4-1.3-1.82-.74-3.07-1.5-3.76-2.3a4.39 4.39 0 0 1-1.01-2.95c0-1.48.53-2.7 1.59-3.65a6.1 6.1 0 0 1 4.25-1.46 6.6 6.6 0 0 1 4.45 1.44 4.83 4.83 0 0 1 1.67 3.86h-4.42c0-1.37-.57-2.06-1.72-2.06-.47 0-.85.14-1.15.44-.3.29-.46.7-.46 1.21 0 .38.17.71.5 1 .34.29 1.12.7 2.36 1.22 1.8.67 3.08 1.41 3.82 2.24a4.5 4.5 0 0 1 1.12 3.17c0 1.5-.57 2.72-1.7 3.64a6.9 6.9 0 0 1-4.47 1.37 7.17 7.17 0 0 1-3.28-.71 5.62 5.62 0 0 1-2.24-2.04c-.53-.86-.8-1.8-.8-2.8h4.2c.03.78.2 1.36.54 1.74.34.39.9.58 1.67.58 1.19 0 1.78-.54 1.78-1.6Zm11.36-10.89a4.37 4.37 0 0 1 3.53-1.8 4.1 4.1 0 0 1 3.52 1.63c.8 1.08 1.2 2.7 1.22 4.84V40.6h-4.44V29.9c0-1-.16-1.7-.47-2.14-.3-.45-.8-.67-1.48-.67-.8 0-1.43.37-1.88 1.1V40.6h-4.42v-24h4.42v8.58Zm19.78 2.78-1.46-.12c-1.21 0-2.03.53-2.46 1.59v11.17h-4.44V23.7h4.18l.12 1.82c.7-1.42 1.66-2.14 2.9-2.14.5 0 .9.07 1.21.2l-.05 4.38Z" fill="#FF7500"/><defs><clipPath id="a"><path fill="#fff" d="M0 0h38v59.18H0z"/></clipPath></defs></svg>